<?xml version="1.0" encoding="UTF-8" standalone="no"?>
<!DOCTYPE svg PUBLIC "-//W3C//DTD SVG 20010904//EN" "http://www.w3.org/TR/2001/REC-SVG-20010904/DTD/svg10.dtd">
<svg viewBox="0 0 500 500" xmlns="http://www.w3.org/2000/svg">
<path d="m271.335,362.637c0,0 12.719,37.308 27.133,68.681s39.853,46.636 43.245,46.636 6.783-17.806 5.935-27.981-24.59-30.526 16.111,1.695 69.529,45.788 66.985,34.765c4.24-27.134-43.244-83.944-12.718-73.769 30.525,10.175 82.248,33.917 50.027-3.392s-65.29-54.267-37.308-53.419 55.114,13.567 41.548-11.023-78.837-62.832-106.818-78.943c-22.046,11.023-65.31,39.939-94.14,96.75z" fill="#ff4000" fill-rule="evenodd" transform="matrix(1.0041,0,0,1.01474,-1.11186,-7.22347)"/>
<path d="m284.054,339.743c0,0 9.327,44.94 19.502,58.506s12.719,11.871 15.263-6.783-15.263-37.309 15.262-16.958 56.811,45.787 41.549,14.414-19.503-39.004 1.695-27.981 41.549,19.502 16.11-11.023c-19.501-22.046 19.502-27.982 26.286-30.525 16.111,2.544-68.681-44.941-77.16-44.941-9.328,1.696-55.116,58.507-58.507,65.291z" fill="#ff3" fill-opacity=".6963" fill-rule="evenodd"/>
<path d="m43.244,60.7763c78.857,1.6957 278.118,33.9166 354.431,229.7867-26.286,5.088-90.727,67.834-100.902,102.598-194.174-99.206-249.2894-256.072-253.529-332.3847z" fill="#d9d9d9" fill-rule="evenodd" stroke="#000" stroke-linejoin="round" stroke-width="10" transform="translate(-25.43768,-29.67728)"/>
<path d="m189.087,321.936c0,0 3.391,86.488 3.391,87.336s104.295,48.332 110.23,50.876l-5.087-67.834c-9.327.848-92.424-52.571-108.534-70.378z" fill="#bfbfbf" fill-rule="evenodd" stroke="#000" stroke-linejoin="round" stroke-width="10" transform="translate(-25.43768,-29.67728)"/>
<path d="m190.761,322.825c0,0 1.717,85.599 1.717,86.447s104.295,48.332 110.23,50.876l-5.087-67.834c-32.812-9.908-87.421-49.056-106.86-69.489z" fill="#bfbfbf" fill-rule="evenodd" stroke="#000" stroke-linejoin="round" stroke-width="10" transform="matrix(-2.457462e-2,.9997,.9997,2.457462e-2,-13.30614,-47.28390)"/>
<path d="m235.31677,210.16905c0,0 14.25998,34.1226 16.66717,39.68586 2.95384,3.74833 77.58902,64.65636 83.06759,68.07417l-3.17884-21.68073c-7.99424-7.69864-76.8034-68.01598-96.55592-86.0793z" fill="#bfbfbf" fill-rule="evenodd" stroke="#000" stroke-linejoin="round" stroke-width="10"/>
<path d="m232.63653,209.39949-16.7685,24.28023 20.64479,35.73392 85.75397,67.74438 12.38761-18.54548-81.99138-69.24003-20.02649-39.97302z" fill="#bfbfbf" fill-rule="evenodd" stroke="#000" stroke-linejoin="round" stroke-width="10"/>
<path d="m124.645,131.154c-28.8298,39.004 30.524,87.336 58.506,52.571 33.917-42.396-24.589-83.096-58.506-52.571z" fill="#bfbfbf" fill-rule="evenodd" stroke="#000" stroke-linejoin="round" stroke-width="12.5"/>
<path d="m132.276,135.393c21.198-20.35 70.377,4.24 48.332,40.701-24.59,31.372-74.617-8.479-48.332-40.701z" fill="#aeffff" fill-rule="evenodd" stroke="#000" stroke-linejoin="round" stroke-width="10"/>
<path d="m148.386,134.502c-6.86088,4.73755-24.90051,19.62388-10.175,37.352 12.719,3.392 30.525-35.656 10.175-37.352z" fill="#fff" fill-opacity=".75" fill-rule="evenodd"/>
</svg>
